<svg id="Layer_1" data-name="Layer 1" xmlns="http://www.w3.org/2000/svg" viewBox="0 0 256 256"><defs><style>.cls-1{fill:#695e78;}.cls-2{fill:#fff;}</style></defs><title>card</title><path class="cls-1" d="M166.33,14.5H89.67a21,21,0,0,0-14.83,6.14L20.64,74.85A21,21,0,0,0,14.5,89.68v76.65a21,21,0,0,0,6.14,14.82l54.2,54.21a21,21,0,0,0,14.83,6.14h76.66a21,21,0,0,0,14.82-6.14l54.21-54.21a21,21,0,0,0,6.14-14.82V89.68a21,21,0,0,0-6.14-14.83L181.15,20.64a21,21,0,0,0-14.82-6.14"/><path class="cls-2" d="M181.71,102.08H165.05V91.52A6.55,6.55,0,0,0,158.5,85H74.29a6.55,6.55,0,0,0-6.55,6.55v56A6.55,6.55,0,0,0,74.29,154H90.46a1.27,1.27,0,0,0,.13.19v10.26A6.56,6.56,0,0,0,97.14,171h84.57a6.56,6.56,0,0,0,6.55-6.56V108.64a6.56,6.56,0,0,0-6.55-6.56m0,5.75a.8.8,0,0,1,.8.81v41H96.33v-41a.81.81,0,0,1,.81-.81ZM73.49,147.47V91.52a.8.8,0,0,1,.8-.8H158.5a.8.8,0,0,1,.8.8v10.56H97.14a6.56,6.56,0,0,0-6.55,6.56v39.63H74.29a.8.8,0,0,1-.8-.8m108.22,17.81H97.14a.81.81,0,0,1-.81-.81v-9.12h86.18v9.12a.8.8,0,0,1-.8.81"/><path class="cls-2" d="M181.11,27.18h14.52a1,1,0,0,0,0-2.08H181.11a1,1,0,0,0,0,2.08"/></svg>