<svg id="Layer_1" data-name="Layer 1" xmlns="http://www.w3.org/2000/svg" viewBox="0 0 256 256"><defs><style>.cls-1{fill:#fff;}.cls-2{fill:#f1707e;}</style></defs><title>diet</title><path class="cls-1" d="M181.11,27.18h14.52a1,1,0,0,0,0-2.08H181.11a1,1,0,0,0,0,2.08"/><path class="cls-1" d="M167.49,181.74c-.85-2.91-1.88-5.78-2.6-8.72a11.69,11.69,0,0,0-8.59-9.12H138.1c-.07-.17-.15-.33-.21-.51,2.45-1.23,4.8-2.79,7.39-3.59,1.75-.53,2.95,1.59,4.46,2.41,1.16.63,2.16,1.89,3.58.52,0-.87.11-1.76.11-2.64q0-30.5,0-61c0-14.72-9.9-26.05-24.44-28.11a15.86,15.86,0,0,0-17.9,11.78,15.65,15.65,0,0,0,9.81,18.26,24.6,24.6,0,0,0,7,1.13c-5.66,6.48-6.67,13.88-6.39,21.72.2,5.39,0,10.8,0,16.19,0,.79-.28,1.89.13,2.3,1.72,1.76.18,2.13-1,2.73-8,4.16-16,8.26-24,12.49-6.62,3.51-9.64,9.83-8.2,16.92.58,2.82,2.28,5.18,3.34,7.8.86,2.13,2.15,2.84,4.46,2.83,17.19-.1,34.37,0,51.55,0,5.7,0,11.39,0,17.09,0,2.82,0,3.29-.66,2.52-3.36M119,76.35c4.49-3.22,6-2.77,7.72,2.27.4,1.19.76,2.4,1.29,4.08a22.48,22.48,0,0,0-10.74-4.77A22.41,22.41,0,0,1,119,76.35M113.85,86.4c0-5.19,1.45-6.27,6.38-4.53,6.72,2.37,9.91,7.92,12.34,14.09.58,1.48-.82,1.58-1.6,1.92-8,3.51-17.15-2.64-17.12-11.48m11,29.94a20.16,20.16,0,0,1,8-14.55c3.24-2.51,3.77-4.94,2.2-8.74-2.48-6-4.32-12.28-6.58-18.87,9.23,1.35,15.54,6,19.51,13.87a23.12,23.12,0,0,1,2.4,10.52q0,29,0,58v2.22L125.89,142a2.37,2.37,0,0,1-1.3-2.12c.16-7.85-.4-15.72.29-23.54m.32,29.94a1.59,1.59,0,0,1,1.85.3c2.23,1.57,4.48,3.11,7,4.88-9,3.44-17.57,6.89-26.28,10-2.41.86-4.23-1.55-6.76-2.54,8.27-4.33,16.21-8.48,24.14-12.65m36.93,35.63c-4.71-.06-9.42,0-14.13,0-16.39,0-32.77-.06-49.16.06-2.69,0-4.21-.64-5.3-3.25-1.18-2.84-2.45-5.52-2.13-8.7a11.79,11.79,0,0,1,2.15-5.7c2.45-3.49,3.8-4.07,7.38-1.8,4,2.58,7.66,2.53,12,.58,6.4-2.9,13.1-5.12,19.67-7.65,5.21-2,5.21-2,9.88,2.1-3.91,2-7.73,3.88-11.54,5.81-1,.51-2.45.86-2.13,2.38s1.77,1.22,2.91,1.23H153.2c4.66,0,7.06,1.8,8.41,6.22.68,2.24,1.26,4.52,2.06,6.72.6,1.65.07,2-1.54,2"/><path class="cls-1" d="M167.49,181.74c-.85-2.91-1.88-5.78-2.6-8.72a11.69,11.69,0,0,0-8.59-9.12H138.1c-.07-.17-.15-.33-.21-.51,2.45-1.23,4.8-2.79,7.39-3.59,1.75-.53,2.95,1.59,4.46,2.41,1.16.63,2.16,1.89,3.58.52,0-.87.11-1.76.11-2.64q0-30.5,0-61c0-14.72-9.9-26.05-24.44-28.11a15.86,15.86,0,0,0-17.9,11.78,15.65,15.65,0,0,0,9.81,18.26,24.6,24.6,0,0,0,7,1.13c-5.66,6.48-6.67,13.88-6.39,21.72.2,5.39,0,10.8,0,16.19,0,.79-.28,1.89.13,2.3,1.72,1.76.18,2.13-1,2.73-8,4.16-16,8.26-24,12.49-6.62,3.51-9.64,9.83-8.2,16.92.58,2.82,2.28,5.18,3.34,7.8.86,2.13,2.15,2.84,4.46,2.83,17.19-.1,34.37,0,51.55,0,5.7,0,11.39,0,17.09,0,2.82,0,3.29-.66,2.52-3.36M119,76.35c4.49-3.22,6-2.77,7.72,2.27.4,1.19.76,2.4,1.29,4.08a22.48,22.48,0,0,0-10.74-4.77A22.41,22.41,0,0,1,119,76.35M113.85,86.4c0-5.19,1.45-6.27,6.38-4.53,6.72,2.37,9.91,7.92,12.34,14.09.58,1.48-.82,1.58-1.6,1.92-8,3.51-17.15-2.64-17.12-11.48m11,29.94a20.16,20.16,0,0,1,8-14.55c3.24-2.51,3.77-4.94,2.2-8.74-2.48-6-4.32-12.28-6.58-18.87,9.23,1.35,15.54,6,19.51,13.87a23.12,23.12,0,0,1,2.4,10.52q0,29,0,58v2.22L125.89,142a2.37,2.37,0,0,1-1.3-2.12c.16-7.85-.4-15.72.29-23.54m.32,29.94a1.59,1.59,0,0,1,1.85.3c2.23,1.57,4.48,3.11,7,4.88-9,3.44-17.57,6.89-26.28,10-2.41.86-4.23-1.55-6.76-2.54,8.27-4.33,16.21-8.48,24.14-12.65m36.93,35.63c-4.71-.06-9.42,0-14.13,0-16.39,0-32.77-.06-49.16.06-2.69,0-4.21-.64-5.3-3.25-1.18-2.84-2.45-5.52-2.13-8.7a11.79,11.79,0,0,1,2.15-5.7c2.45-3.49,3.8-4.07,7.38-1.8,4,2.58,7.66,2.53,12,.58,6.4-2.9,13.1-5.12,19.67-7.65,5.21-2,5.21-2,9.88,2.1-3.91,2-7.73,3.88-11.54,5.81-1,.51-2.45.86-2.13,2.38s1.77,1.22,2.91,1.23H153.2c4.66,0,7.06,1.8,8.41,6.22.68,2.24,1.26,4.52,2.06,6.72.6,1.65.07,2-1.54,2"/><path class="cls-2" d="M166.33,14.5H89.67a21,21,0,0,0-14.83,6.14l-54.2,54.2A21,21,0,0,0,14.5,89.67v76.66a21,21,0,0,0,6.14,14.83l54.2,54.2a21,21,0,0,0,14.83,6.14h76.66a21,21,0,0,0,14.82-6.14l54.21-54.2a21,21,0,0,0,6.14-14.83V89.67a21,21,0,0,0-6.14-14.83l-54.21-54.2a21,21,0,0,0-14.82-6.14"/><path class="cls-1" d="M161.94,128.05V72.74s-24.55,0-24.55,19.73V128a6.17,6.17,0,0,0,6.12,6.19v40a9.22,9.22,0,0,0,18.43,0ZM143.53,92.47c0-3.46.85-8.41,8.17-11.45a26.1,26.1,0,0,1,4.09-1.31v48.34H143.56a0,0,0,0,1,0-.05Zm12.26,81.68a3.07,3.07,0,0,1-6.14,0v-40h6.14ZM122.33,72.64a3.07,3.07,0,0,0-3.08,3.07v30.53H112.8V75.71a3.07,3.07,0,0,0-6.14,0v30.53h-6.45V75.71a3.08,3.08,0,0,0-6.15,0v33.6a26.25,26.25,0,0,0,1.8,8.9,16.15,16.15,0,0,0,4.65,6.53v49.15a9.22,9.22,0,1,0,18.44,0V124.74a16.15,16.15,0,0,0,4.65-6.53,26.25,26.25,0,0,0,1.8-8.9V75.71a3.06,3.06,0,0,0-3.07-3.07m-3.42,39.74a17.52,17.52,0,0,1-1.06,3.65,12.26,12.26,0,0,1-.66,1.36h0l-.33.55-.15.22-.21.3-.18.23-.21.26-.19.21-.22.24-.19.19-.25.22-.2.17-.28.22-.18.13-.39.25-.1.07-.5.26-.19.08-.35.15-.23.08-.34.11-.24.07-.35.09-.25.05-.37.06-.25,0-.43,0-.21,0-.67,0-.67,0-.21,0-.43,0-.24,0-.38-.06-.25-.05-.35-.09-.24-.07-.34-.11-.23-.08-.34-.15-.2-.08-.5-.26-.1-.07-.39-.25-.18-.13-.28-.22-.2-.17-.24-.22-.2-.19-.22-.24-.19-.21-.21-.26-.18-.23-.21-.3-.15-.22-.33-.55h0a12.26,12.26,0,0,1-.66-1.36,18.83,18.83,0,0,1-1.06-3.65Zm-6.11,61.51a3.08,3.08,0,1,1-6.14,0V127.58a17,17,0,0,0,6.14,0Z"/></svg>