<svg id="Layer_1" data-name="Layer 1" xmlns="http://www.w3.org/2000/svg" viewBox="0 0 256 256"><defs><style>.cls-1{fill:#fff;}.cls-2{fill:#c26a84;}</style></defs><title>expert</title><path class="cls-1" d="M181.11,27.18h14.52a1,1,0,0,0,0-2.08H181.11a1,1,0,0,0,0,2.08"/><path class="cls-2" d="M166.33,14.5H89.67a21,21,0,0,0-14.82,6.14L20.64,74.85A21,21,0,0,0,14.5,89.67v76.66a21,21,0,0,0,6.14,14.82l54.21,54.21a21,21,0,0,0,14.82,6.14h76.66a21,21,0,0,0,14.82-6.14l54.21-54.21a21,21,0,0,0,6.14-14.82V89.67a21,21,0,0,0-6.14-14.82L181.15,20.64a21,21,0,0,0-14.82-6.14"/><path class="cls-1" d="M110.49,100.49a2.23,2.23,0,0,1,.33-1.12l0,0V89.84L129.21,101,148,89.84V98.7a14.26,14.26,0,0,1,.3,1.79c0,3.38-8.46,6.12-18.91,6.12s-18.9-2.74-18.9-6.12m47.81-19-28.85-9.1-29,9.23,28.87,17.49Zm-47.82,35.05c0,10.14,8.46,18.36,18.92,18.36s18.92-8.21,18.92-18.36v-9.88s-6.42,4.65-18.91,4.65-18.93-4.59-18.93-4.59Zm62.1,41.1v26.07H156.74V160.84h-5.12v22.83H104.18l0-22.61h-5v22.61H83.42V157.59s-.94-19.77,26-20.28H124l5.13,8.42,5.15-8.42H147s23.86-.27,25.59,20.28m-38.92-3-4.45-7.51-4.46,7.34,4.77,22Zm-31.35-52.1-1.62-19.36L99,102.48l1.72,5.55Z"/></svg>