<svg id="Layer_1" data-name="Layer 1" xmlns="http://www.w3.org/2000/svg" viewBox="0 0 256 256"><defs><style>.cls-1{fill:#f6b193;}.cls-2{fill:#fff;}</style></defs><title>furnished</title><path class="cls-1" d="M166.33,14.5H89.67a21,21,0,0,0-14.83,6.14L20.64,74.85A21,21,0,0,0,14.5,89.67v76.65a21,21,0,0,0,6.14,14.83l54.2,54.21a21,21,0,0,0,14.83,6.14h76.66a21,21,0,0,0,14.82-6.14l54.21-54.21a21,21,0,0,0,6.14-14.83V89.67a21,21,0,0,0-6.14-14.82L181.15,20.64a21,21,0,0,0-14.82-6.14"/><path class="cls-2" d="M171.75,181H171c-1.52,0-1.68-.19-1.71-1.74V122.47c0-2.23,0-2.23-2.08-3l-.31-.11q-13.91-5.06-27.8-10.08a2.07,2.07,0,0,1-1.6-2.26c.05-4.78,0-9.56,0-14.34,0-1.79-.07-1.9-1.7-2.5l-46.66-17C87,72.43,87,72.45,87,74.8V177.31c0,.8,0,1.62,0,2.42s-.38,1.31-1.26,1.3c-.36,0-.73,0-1.1,0-.76,0-1.55,0-1.56,1.07s.82,1.12,1.62,1.13h87.05c.76,0,1.3-.24,1.29-1.13s-.52-1.06-1.23-1.07M132,181H92.41c-2,0-2.14-.11-2.15-2.21V80c0-.22,0-.44,0-.66,0-1.74.26-1.92,1.86-1.33l38.43,14,2.5.88a1.54,1.54,0,0,1,1.1,1.6c0,3.52,0,7,0,10.57s0,7,0,10.46c0,3.86,0,7.71,0,11.57v22c0,3.56,0,7.12,0,10.68,0,3.9,0,7.79,0,11.68,0,2.46,0,4.92,0,7.38,0,1.94-.24,2.16-2.16,2.16m18.06-54.48c0-2.45,0-2.45,2.43-2.46h.11c2.53,0,2.53,0,2.53,2.58s0,2.5-2.49,2.5-2.59,0-2.58-2.62m2.51,10.13c-2.51,0-2.51,0-2.51-2.48,0-2.82,0-2.82,2.83-2.82h.55c1.48,0,1.67.2,1.69,1.65,0,.36,0,.73,0,1.1,0,2.54,0,2.54-2.56,2.54M144,123.92c2.61-.22,2.95.1,2.95,2.68s0,2.57-2.53,2.57-2.54,0-2.54-2.56c0-2.42.07-2.51,2.12-2.69m1.23,22.7c1.54,0,1.7.18,1.72,1.72,0,.22,0,.44,0,.66,0,2.69,0,2.69-2.64,2.69h-.77c-1.45,0-1.66-.21-1.66-1.68,0-3.74-.35-3.4,3.35-3.39m-3.35-4.94c0-2.58,0-2.58,2.53-2.57s2.54,0,2.54,2.56c0,2.73,0,2.73-2.69,2.73-2.38,0-2.38,0-2.38-2.72M147,157v.11c0,2.53,0,2.53-2.57,2.53s-2.5,0-2.5-2.5,0-2.58,2.63-2.58c2.44,0,2.44,0,2.44,2.44m0,15.36c0,2.5,0,2.5-2.56,2.5s-2.51,0-2.51-2.45c0-2.62,0-2.62,2.56-2.62s2.51,0,2.51,2.57m-2.52-5.22c-2.56,0-2.56,0-2.55-2.56s0-2.51,2.47-2.52,2.6,0,2.6,2.62c0,2.46,0,2.46-2.52,2.46m0-30.45c-2.54,0-2.54,0-2.53-2.58s0-2.71,2.71-2.72c2.36,0,2.36,0,2.36,2.74,0,2.56,0,2.56-2.54,2.56m8.42,9.93c2.29,0,2.29,0,2.29,2.46,0,2.64-.12,2.77-2.76,2.82-2.06,0-2.31-.21-2.31-2.32,0-3,0-3,2.78-3m-.25,13c-2.54,0-2.54,0-2.53-2.58s0-2.49,2.49-2.5,2.58,0,2.58,2.63c0,2.45,0,2.45-2.54,2.45m0,7.5c-2.52,0-2.52,0-2.52-2.55s0-2.53,2.55-2.53,2.52,0,2.52,2.56,0,2.52-2.55,2.52m2.55,5.26c0,2.46,0,2.46-2.52,2.46s-2.55,0-2.55-2.55,0-2.52,2.57-2.52,2.51,0,2.5,2.61m0-30.77c0,2.78,0,2.78-2.77,2.78H152c-1.86,0-2-.11-2-2v-.66c0-.49,0-.9,0-1.23,0,0,0-.07,0-.11s0-.15,0-.22v-.08a.19.19,0,0,0,0-.08l0-.1a.3.3,0,0,1,0-.1l0-.09,0-.09,0-.06a.41.41,0,0,1,.12-.14l.05,0,.06,0,.1-.06h0l.12,0,.1,0,.08,0a9.18,9.18,0,0,1,1.74-.07c2.48,0,2.48,0,2.47,2.51m6,33.23c-2.46,0-2.46,0-2.46-2.53s0-2.54,2.56-2.54,2.52,0,2.52,2.48,0,2.59-2.62,2.59m.08-12.8c2.54,0,2.54,0,2.54,2.54s0,2.54-2.54,2.54-2.53,0-2.54-2.54,0-2.54,2.54-2.54m0-2.42c-2.5,0-2.5,0-2.5-2.49s0-2.58,2.63-2.59h.44c1.89,0,2,.11,2,2v.55c0,2.54,0,2.54-2.58,2.54m0-7.93c-2.49.05-2.49.05-2.49-2.43,0-2.66,0-2.66,2.66-2.66h.76c1.45,0,1.63.22,1.66,1.69v.77c0,2.57,0,2.57-2.59,2.63m-.18-7.3h-.33c-1.85,0-2-.13-2-1.91v-.78c0-2.61,0-2.61,2.61-2.6s2.47,0,2.47,2.52c0,2.77,0,2.77-2.77,2.77m-2.31-10.3c0-2.72,0-2.72,2.71-2.72,2.37,0,2.37,0,2.37,2.74,0,2.56,0,2.56-2.55,2.56s-2.53,0-2.53-2.58m2.54-4.93c-2.54,0-2.54,0-2.54-2.57s0-2.51,2.6-2.51,2.48,0,2.48,2.52,0,2.56-2.54,2.56"/><path class="cls-2" d="M101.07,99.22c0,.78,0,1.55,0,2.32a1,1,0,0,1-1.07,1.13c-1.54,0-3.09,0-4.63,0a1,1,0,0,1-1.1-1.09c0-1.54,0-3.09,0-4.63a1,1,0,0,1,1.11-1.08c.77,0,1.54,0,2.32,0,3.72,0,3.37-.38,3.38,3.35"/><path class="cls-2" d="M101.06,111.48A1,1,0,0,1,100,112.6c-1.54,0-3.08,0-4.63,0a1,1,0,0,1-1.09-1.09c0-1.54,0-3.09,0-4.63a.94.94,0,0,1,1-1.06c1.58,0,3.16,0,4.74,0a1,1,0,0,1,1,1c0,.8,0,1.61,0,2.42h0v2.21"/><path class="cls-2" d="M120,143.3l-2.2,0a1.09,1.09,0,0,1-1.24-1.21c0-1.51,0-3,0-4.52a.94.94,0,0,1,1-1.06c1.57,0,3.15,0,4.73,0,.73,0,1,.44,1.06,1.14v2.31c0,3.71.36,3.35-3.36,3.37"/><path class="cls-2" d="M99.72,173.31c-1.4,0-2.79,0-4.19,0-.86,0-1.29-.38-1.29-1.25,0-1.44,0-2.87,0-4.3a1.1,1.1,0,0,1,1.28-1.27h4.29a1.1,1.1,0,0,1,1.24,1.21c0,.77,0,1.54,0,2.32h0c0,.62,0,1.24,0,1.86,0,1-.36,1.45-1.35,1.43"/><path class="cls-2" d="M120,163.38l-2.31,0a1,1,0,0,1-1.11-1.07q0-2.31,0-4.62a1,1,0,0,1,1.11-1.1c1.54,0,3.08,0,4.62,0,.73,0,1,.43,1.06,1.13V160c0,3.72.36,3.35-3.37,3.37"/><path class="cls-2" d="M101.07,159.93c0,.77,0,1.54,0,2.31a1,1,0,0,1-1.08,1.12H95.36a1,1,0,0,1-1.1-1.09c0-1.54,0-3.08,0-4.63a1,1,0,0,1,1.1-1.08h2.32c3.68,0,3.39-.3,3.39,3.37"/><path class="cls-2" d="M101.06,142a1.14,1.14,0,0,1-1.3,1.27c-1.4,0-2.8,0-4.19,0-.92,0-1.36-.41-1.33-1.33,0-.7,0-1.39,0-2.09s0-1.4,0-2.09c0-.94.44-1.33,1.35-1.32,1.39,0,2.79,0,4.19,0,.86,0,1.29.38,1.29,1.26,0,1.43,0,2.87,0,4.3"/><path class="cls-2" d="M101.07,149.74c0,.74,0,1.47,0,2.2s-.37,1.26-1.19,1.26c-1.51,0-3,0-4.51,0a1,1,0,0,1-1.1-1.09q0-2.31,0-4.62a1,1,0,0,1,1.11-1.08h2.31c3.74,0,3.38-.37,3.39,3.33"/><path class="cls-2" d="M123.36,151.91c0,.85-.35,1.31-1.24,1.31h-4.28a1.13,1.13,0,0,1-1.3-1.27v-4.29c0-.87.48-1.25,1.32-1.25,1.4,0,2.79,0,4.18,0,.93,0,1.34.43,1.32,1.34,0,.7,0,1.39,0,2.09s0,1.39,0,2.09"/><path class="cls-2" d="M123.34,99.38c0,.73,0,1.47,0,2.2a1,1,0,0,1-1.09,1.09c-1.5,0-3,0-4.51,0a1,1,0,0,1-1.18-1.14c0-1.5,0-3,0-4.51a1.05,1.05,0,0,1,1.18-1.15q2.25,0,4.5,0a1,1,0,0,1,1.1,1.09c0,.81,0,1.61,0,2.42"/><path class="cls-2" d="M123.35,171.61c0,.13,0,.26,0,.38,0,.85-.35,1.31-1.24,1.31q-2.15,0-4.29,0a1.14,1.14,0,0,1-1.29-1.28v-4.28c0-.88.49-1.26,1.33-1.26,1.39,0,2.78,0,4.17,0,.93,0,1.34.43,1.32,1.34,0,.26,0,.52,0,.78,0,.43,0,.87,0,1.31v1.7"/><path class="cls-2" d="M123.35,109.31h0c0,.74,0,1.47,0,2.2a1,1,0,0,1-1.09,1.09c-1.5,0-3,0-4.51,0-.82,0-1.19-.46-1.2-1.25v-4.29a1.14,1.14,0,0,1,1.31-1.27h4.28a1.07,1.07,0,0,1,1.22,1.21v2.31"/><path class="cls-2" d="M108.51,102.69c-3.55,0-3.23.3-3.24-3.29,0-.81,0-1.62,0-2.43a1,1,0,0,1,1.1-1.09c1.47,0,2.94,0,4.41,0A1,1,0,0,1,111.87,97c0,.78,0,1.55,0,2.32,0,3.72.36,3.37-3.37,3.37"/><path class="cls-2" d="M111.87,109.3c0,.73,0,1.47,0,2.2a1,1,0,0,1-1.09,1.1q-2.22,0-4.41,0a1,1,0,0,1-1.07-1q0-2.37,0-4.74a.94.94,0,0,1,1-1c1.51,0,3,0,4.52,0a1,1,0,0,1,1,1.05c0,.81,0,1.62,0,2.43"/><path class="cls-2" d="M101.05,121.69a1,1,0,0,1-1,1.06q-2.37,0-4.74,0a1,1,0,0,1-1-1c0-1.5,0-3,0-4.52a1,1,0,0,1,1.07-1c.81,0,1.61,0,2.42,0s1.47,0,2.21,0a1,1,0,0,1,1.09,1.09c0,1.48,0,3,0,4.42"/><path class="cls-2" d="M108.51,163.38c-3.52,0-3.24.29-3.24-3.19,0-.85,0-1.69,0-2.54a1,1,0,0,1,1.1-1.09h4.41a1,1,0,0,1,1.07,1.13c0,.77,0,1.55,0,2.32,0,3.73.35,3.36-3.37,3.37"/><path class="cls-2" d="M101.06,131.47c0,.81-.38,1.23-1.21,1.22H95.56c-.85,0-1.32-.35-1.32-1.24,0-1.4,0-2.79,0-4.19a1,1,0,0,1,1.14-1.17h4.53a1,1,0,0,1,1.14,1.17v4.2"/><path class="cls-2" d="M108.51,143.29c-3.52,0-3.23.3-3.24-3.18,0-.85,0-1.69,0-2.54a1,1,0,0,1,1.1-1.09h4.41a1,1,0,0,1,1.07,1.12c0,.78,0,1.55,0,2.32,0,3.71.36,3.37-3.37,3.37"/><path class="cls-2" d="M111.89,149.58c0,.81,0,1.62,0,2.42a1.07,1.07,0,0,1-1.23,1.21c-1.36,0-2.72,0-4.08,0-.95,0-1.32-.46-1.3-1.37,0-.7,0-1.4,0-2.1,0-3.71-.34-3.36,3.38-3.36,3.51,0,3.24-.31,3.24,3.19"/><path class="cls-2" d="M111.88,170v1.25c0,.31,0,.64,0,.95a1,1,0,0,1-1.07,1.13q-2.2,0-4.41,0a1,1,0,0,1-1.1-1.09c0-1.54,0-3.09,0-4.63a1,1,0,0,1,1-1.07c1.51,0,3,0,4.52,0,.73,0,1.05.45,1.06,1.14V170"/><path class="cls-2" d="M123.35,127.32v4.19c0,.75-.35,1.18-1.13,1.18h-4.51a1,1,0,0,1-1.17-1.15v-4.18a1.14,1.14,0,0,1,1.31-1.27h4.3c.82,0,1.2.41,1.2,1.22"/><path class="cls-2" d="M123.36,121.51c0,.87-.42,1.27-1.29,1.26h-4.29a1.09,1.09,0,0,1-1.23-1.21c0-1.4,0-2.79,0-4.18a1.1,1.1,0,0,1,1.25-1.2h4.4a1,1,0,0,1,1.15,1.16c0,1.39,0,2.78,0,4.18"/><path class="cls-2" d="M111.87,121.66a1,1,0,0,1-1.1,1.1h-4.39a1,1,0,0,1-1.09-1.1c0-1.46,0-2.93,0-4.39a1,1,0,0,1,1.09-1.09h4.39a1,1,0,0,1,1.1,1.09c0,1.46,0,2.93,0,4.39"/><path class="cls-2" d="M108.68,132.71c-.63,0-1.25,0-1.88,0-1,0-1.57-.37-1.54-1.47,0-1.29,0-2.58,0-3.87a1.11,1.11,0,0,1,1.28-1.28h4.08c.89,0,1.27.45,1.26,1.31,0,.69,0,1.39,0,2.09,0,3.51.29,3.21-3.2,3.22"/></svg>