<svg id="Layer_1" data-name="Layer 1" xmlns="http://www.w3.org/2000/svg" viewBox="0 0 256 256"><defs><style>.cls-1{fill:#c26a84;}.cls-2{fill:#fff;}</style></defs><title>safety</title><path class="cls-1" d="M166.33,14.5H89.67a21,21,0,0,0-14.83,6.14L20.64,74.85A21,21,0,0,0,14.5,89.67v76.66a21,21,0,0,0,6.14,14.83l54.2,54.2a21,21,0,0,0,14.83,6.14h76.66a21,21,0,0,0,14.82-6.14l54.21-54.2a21,21,0,0,0,6.14-14.83V89.67a21,21,0,0,0-6.14-14.82L181.15,20.64a21,21,0,0,0-14.82-6.14"/><path class="cls-2" d="M164.07,183.88l-71.88.28c-4.16,0-7.56-4.09-7.58-9.15l-.19-49.84c0-5,3.35-9.17,7.51-9.19h.52l0-8.33c-.07-19.33,15.29-35.38,34.26-35.8h2c19,.26,34.45,16.2,34.52,35.52l0,8.34h.52c4.15,0,7.56,4.07,7.58,9.12l.19,49.85c0,5.06-3.35,9.19-7.51,9.2M91.94,119.19c-2.35,0-4.33,2.74-4.31,6L87.82,175c0,3.24,2,6,4.36,6l71.87-.28c2.36,0,4.34-2.75,4.32-6l-.19-49.85c0-3.22-2-5.94-4.36-5.93l-3.73,0,0-11.54c-.07-17.59-14.14-32.1-31.37-32.34h-1.93c-17.23.38-31.19,15-31.12,32.59l0,11.54Zm39.7,50.52-7.13,0a4.84,4.84,0,0,1-4.79-4.76l0-14.43a10.72,10.72,0,0,1,7.21-17.78c.52,0,1.59,0,2.12,0a10.73,10.73,0,0,1,7.34,17.73l.06,14.42a4.85,4.85,0,0,1-4.76,4.81m-3.7-33.77-.92,0a7.38,7.38,0,0,0-6.82,7.49,7.31,7.31,0,0,0,2.19,5.3l.47.47.07,15.73a1.61,1.61,0,0,0,1.57,1.58l7.13,0a1.61,1.61,0,0,0,1.56-1.59l-.06-15.72.48-.48A7.52,7.52,0,0,0,128.88,136h-.94m21.36-17-42.84.16,0-11.54a21.42,21.42,0,1,1,42.84-.16Zm-39.65-3,36.44-.14,0-8.34a18.22,18.22,0,1,0-36.43.14Z"/></svg>