<svg id="Layer_1" data-name="Layer 1" xmlns="http://www.w3.org/2000/svg" xmlns:xlink="http://www.w3.org/1999/xlink" viewBox="0 0 256 256"><defs><style>.cls-1{fill:none;}.cls-2{clip-path:url(#clip-path);}.cls-3{fill:#f1707e;}.cls-4{fill:#fff;}</style><clipPath id="clip-path"><rect class="cls-1" x="-298.35" y="-60.67" width="841.89" height="595.28"/></clipPath></defs><title>furnished</title><g class="cls-2"><path class="cls-3" d="M166.33,14.5H89.68a21,21,0,0,0-14.83,6.14L20.64,74.85A21,21,0,0,0,14.5,89.67v76.66a21,21,0,0,0,6.14,14.82l54.21,54.21a21,21,0,0,0,14.83,6.14h76.65a21,21,0,0,0,14.83-6.14l54.2-54.21a21,21,0,0,0,6.14-14.82V89.67a21,21,0,0,0-6.14-14.82l-54.2-54.21a21,21,0,0,0-14.83-6.14"/><path class="cls-4" d="M172.44,115.39l-29.67-4.71-.2,0H114.78l-31.3,6.06a2.56,2.56,0,0,0,.49,5.08,2.81,2.81,0,0,0,.49-.05l2.39-.46V175a2.69,2.69,0,0,0,.29,1.2,2.58,2.58,0,0,0,2.15,2.27l25.19,4h27.8l25.57-4.95h0l.2-.05.05,0,.18-.06.06,0,.13-.07a.31.31,0,0,0,.1-.05l.06,0a2.5,2.5,0,0,0,.7-.59,2.55,2.55,0,0,0,.44-.79l0-.07a.36.36,0,0,0,0-.11.57.57,0,0,0,0-.14.13.13,0,0,0,0-.06,1.48,1.48,0,0,0,0-.19v-.06a1.23,1.23,0,0,0,0-.2h0V120.19l1.7.27a2.57,2.57,0,0,0,.81-5.07m-60.88,61.43L92,173.71V148.38l19.58,4Zm0-29.72L92,143.15V120.29l19.58-3.79Zm27.88,30.25H116.68V152.92h22.76ZM127.09,137.2h1.13a3.21,3.21,0,0,1,3.21,3.21v7.38h-7.55v-7.38a3.21,3.21,0,0,1,3.21-3.21m-1.6-9a2.17,2.17,0,1,1,2.17,2.17,2.17,2.17,0,0,1-2.17-2.17m14,19.61h-4v-7.38a7.24,7.24,0,0,0-6.09-7.13,5.38,5.38,0,1,0-3.38,0,7.25,7.25,0,0,0-6.1,7.13v7.38h-3.18v-32h22.75Zm25.36,25.1-20.23,3.92V152.62L164.8,148Zm0-30.12-20.23,4.58V116.16l20.23,3.21Z"/><path class="cls-4" d="M84,111.68a2.81,2.81,0,0,0,.5,0l30.81-6h26.9l29.46,4.68a2.56,2.56,0,1,0,.81-5.06L164.18,104a34.2,34.2,0,0,0-12.42-18.21,38.18,38.18,0,0,0-19.85-7.49,3.81,3.81,0,0,0,.16-1.08,3.77,3.77,0,0,0-7.54,0,3.58,3.58,0,0,0,.15,1c-16.63,1.21-28.93,11.12-32.46,26.47a2.07,2.07,0,0,0,0,.22l-8.7,1.68a2.56,2.56,0,0,0,.48,5.08m64.7-21.83a29.19,29.19,0,0,1,9.85,13.23l-12.82-2a37.44,37.44,0,0,0-9.06-16.82,32.29,32.29,0,0,1,12,5.63m-20.31-6c5.92,3.85,10.18,10.75,11.92,16.66H117.13C119,94,124.05,87,128.35,83.89m-20.66,5.53a31.07,31.07,0,0,1,13.14-5.54c-4.12,4.58-7.87,11-9.12,17.26l-13.95,2.7a27.63,27.63,0,0,1,9.93-14.42"/></g></svg>