<svg id="Layer_1" data-name="Layer 1" xmlns="http://www.w3.org/2000/svg" viewBox="0 0 256 256"><defs><style>.cls-1{fill:#fff;}.cls-2{fill:#695e78;}</style></defs><title>staff</title><path class="cls-1" d="M181.11,27.18h14.52a1,1,0,0,0,0-2.08H181.11a1,1,0,0,0,0,2.08"/><path class="cls-2" d="M166.33,14.5H89.67a21,21,0,0,0-14.82,6.14L20.64,74.85A21,21,0,0,0,14.5,89.68v76.65a21,21,0,0,0,6.14,14.82l54.21,54.21a21,21,0,0,0,14.82,6.14h76.66a21,21,0,0,0,14.82-6.14l54.21-54.21a21,21,0,0,0,6.14-14.82V89.68a21,21,0,0,0-6.14-14.83L181.15,20.64a21,21,0,0,0-14.82-6.14"/><path class="cls-1" d="M99.07,156.7H84.73a11.26,11.26,0,0,1-11.25-11.25v-26a2.87,2.87,0,0,0-5.74,0v26a17,17,0,0,0,17,17H99.07a2.87,2.87,0,0,0,0-5.74"/><path class="cls-1" d="M118.16,133.79h-19V118.53a10,10,0,0,0-8.8-9.89,9.92,9.92,0,1,0-2.4,0,9.94,9.94,0,0,0-8.71,9.87v25.8a6.74,6.74,0,0,0,6.71,6.73h21.92v19.86a8.69,8.69,0,0,0,17.38,0V140.84a7,7,0,0,0-7-7.05m-34.51-35a5.41,5.41,0,1,1,5.41,5.41,5.41,5.41,0,0,1-5.41-5.41m35.82,72.15a3,3,0,0,1-5.9,0v-25.6H85.92a1,1,0,0,1-1-1v-25.8a4.22,4.22,0,1,1,8.43,0v21h24.79a1.31,1.31,0,0,1,1.31,1.31Z"/><path class="cls-1" d="M185.39,116.55a2.88,2.88,0,0,0-2.87,2.87v26a11.26,11.26,0,0,1-11.25,11.25H156.94a2.87,2.87,0,1,0,0,5.73h14.33a17,17,0,0,0,17-17v-26a2.88,2.88,0,0,0-2.87-2.87"/><path class="cls-1" d="M176.8,144.33v-25.8a9.94,9.94,0,0,0-8.7-9.87,10,10,0,1,0-2.4,0,10,10,0,0,0-8.8,9.89v15.26H137.84a7,7,0,0,0-7.05,7.05v30.08a8.69,8.69,0,0,0,17.38,0V151.06H170.1a6.73,6.73,0,0,0,6.7-6.73M161.53,98.77a5.41,5.41,0,1,1,5.41,5.42,5.42,5.42,0,0,1-5.41-5.42m-13.36,46.55h-5.73v25.6a3,3,0,0,1-5.91,0V140.84a1.31,1.31,0,0,1,1.31-1.31h24.8v-21a4.21,4.21,0,1,1,8.42,0v25.8a1,1,0,0,1-1,1Z"/><path class="cls-1" d="M142.19,90.71A14.33,14.33,0,1,0,127.87,105a14.32,14.32,0,0,0,14.32-14.33m-14.32,9.78a9.78,9.78,0,1,1,9.78-9.78,9.78,9.78,0,0,1-9.78,9.78"/><path class="cls-1" d="M131.65,88.64l-2.5,1.24V85.43a1.52,1.52,0,0,0-3,0v6.45a1.79,1.79,0,0,0,1,1.61,1.73,1.73,0,0,0,.83.21,1.82,1.82,0,0,0,.9-.25L133,91.36a1.52,1.52,0,1,0-1.36-2.72"/></svg>